<svg version="1" xmlns="http://www.w3.org/2000/svg" width="540" height="540" viewBox="0 0 405.000000 405.000000"><path d="M232.7 9.9C194.3 40 136.5 105 104.4 154l-8.5 13h-9.7l1.5 5.7 1.4 5.6-5.8 12.3c-3.2 6.8-6.4 12.4-7 12.4-1 0-1.3-4.3-1.3-18v-18H17v137l22.7.2 22.7.3 1.3 5c1.7 6.6 1.6 7.5-.4 8.1-5.5 1.8-7.3 2.8-7.8 4.5-.4 1.2-1.6 1.9-3.2 1.9-2.4 0-2.5-.2-1.9-4 1-6.5-.4-8-7.4-8-3.4 0-6.2.5-6.6 1.2-.4.6-.8 6.7-.8 13.6-.1 10.1.2 12.6 1.5 13.8 1.3 1.2 5.2 1.4 21.2 1.2l19.5-.2 4.6 6.1c6.7 8.9 20.3 21.3 31.4 28.7 22.8 15.2 49.5 24 81 26.7 42.8 3.7 89.6-10.9 121-38 7.3-6.3 23.2-25.2 23.2-27.6 0-.8.9-1.9 2-2.5 1.7-.9 2-.8 2 1.4 0 4.5 2.3 5.6 11.9 5.6 7.2 0 9.1-.3 10.4-1.8 2-2.1 2.2-8.4.6-11.1-.9-1.3-.9-2.6-.1-5 2.3-6.7-3.2-13.1-11.3-13.1-3.2 0-3.5-.3-3.5-2.9 0-5.7 2-8.9 8.5-13.5 23.2-16.6 34.4-44.8 29.1-72.9-2.3-11.9-4.8-18.4-10.8-27.3-11.8-17.7-30.9-27.3-54.3-27.4-4.9 0-11.4-.3-14.3-.7-5.2-.6-5.3-.6-11.5-9.2-28.6-39-43.6-69.2-51.3-103.3-3.4-15.2-5.6-34.8-4.8-43.6.3-3.9.5-7.2.3-7.2s-4.4 3.1-9.2 6.9zm5.8 32.1c6.3 37.6 22.7 73.3 53.3 116l5.3 7.5-40.4.3-40.5.2-2.3 9.5c-1.3 5.2-2.6 9.2-3 8.8-.3-.5-1.4-4.7-2.4-9.6l-1.8-8.7h-50.4l-1.8 8.2c-.9 4.6-2.1 8.9-2.5 9.7-.5.9-1.6-2.1-3-8.2l-2.2-9.7-22-.2-21.9-.3 7-10.7C137.6 112.3 198.5 43.2 231 17.6l4.5-3.6.7 9.3c.4 5 1.4 13.5 2.3 18.7zM69 214.5V256h47.9l-1.4-4.8C112.9 242.4 94 174 94 173.5c0-.3 10.7-.5 23.8-.5h23.8l5 20.9c2.7 11.5 5.1 20.7 5.4 20.5.3-.3 2.5-9.6 5-20.7l4.5-20.2h40l4.4 20.8c2.5 11.4 4.8 20.2 5.1 19.5.4-.7 2.9-10.2 5.6-21.1l4.8-19.7H277c61.3 0 63.6.2 75.8 6.2 34.9 17.1 41.9 73.2 12.8 102.4-8 8-14.4 11.7-25.4 14.5-6.7 1.7-11.2 1.9-42.4 1.9H263l-.2-50.6-.3-50.6-12.4 44.3c-6.9 24.4-13.3 47.2-14.3 50.6l-1.9 6.3h-44.6l-3.9-19.6c-2.1-10.7-4.1-18.9-4.3-18.2-.3.7-2.1 9.4-4.1 19.3l-3.6 18-22.5.3-22.5.2-3.6-12.7-3.6-12.8-.1 12.7-.1 12.8H23V173h46v41.5zm30.4 4c4.3 15.4 8 28.8 8.2 29.7.5 1.7-.7 1.8-15.5 1.8H76v-14c0-13.6.1-14.4 3.4-22.8 5.5-14.2 10.6-24.6 11.5-23.6.4.5 4.3 13.5 8.5 28.9zm197.9 86.2c28.4-.2 41.3-.7 44-1.6 2.2-.7 4-1.1 4.2-.9.5.6-2.3 12.3-3.8 15.8l-1.5 3.5-1.6-3.7c-2.1-4.9-4.4-6.1-8.8-4.6-1.8.6-4 1.7-4.9 2.4-1.8 1.6-12.9 1.9-12.9.4 0-2.1-4.1-5-7.2-5-3.3 0-6.8 2.4-6.8 4.7 0 .9-1.3 1.3-4 1.3-2.8 0-4-.4-4-1.5 0-2.6-3.7-3.8-7.8-2.4-2 .6-4.4 1.7-5.2 2.4-.8.8-3.9 1.5-6.9 1.6-4.6.3-5.5 0-6.1-1.7-1.3-3.5-3.7-4.7-7.7-4-2.1.4-4.5.6-5.3.6-.8-.1-5.2-.3-9.8-.6-5.2-.4-8.8-.2-9.6.5-2 1.6-1.6 28.9.4 30.1 1.9 1.2 11.6 1.3 15.7.1 2-.6 3.5-.6 3.8 0 .3.5 6.2.7 13.3.4 7-.2 13.6-.4 14.7-.4 21.8.6 43.4.5 44.8-.2.9-.6 2.4-.6 3.2-.1 1.2.6.5 2-3.8 7.3-20.6 24.9-55.1 42.3-94 47.4-33.9 4.4-67.1-.9-97.2-15.5-15.6-7.5-27.4-16-38.7-27.9l-9.2-9.6 8.9-.3c4.9-.2 9.4-.7 10.1-1.3.7-.6 2.1-.6 3.6 0 3.2 1.2 22.7 1.2 25 0 1.6-.9 1.7-2.2 1.2-14.7-.4-7.5-1.1-14.3-1.7-15-1.2-1.6-10.9-1.6-12.5 0-.7.7-1.2 2-1.2 3 0 1.5-.9 1.8-5.2 1.8-2.9 0-13.5.1-23.5.3l-18.2.2-1.5-5.6c-.9-3-1.6-5.8-1.6-6.2 0-.4 25-.7 55.5-.7 43.7 0 55.5-.3 55.5-1.3 0-.6.5-3 1.2-5.2l1.2-4 1.1 5 1.1 5 27.6.3 27.6.2 1.6-4.7c.8-2.7 4.5-15.4 8.1-28.3 3.6-12.9 6.8-24.2 7.3-25 .4-.8.8 11.9 1 28.3l.2 29.8 40.3-.4zM46.3 324c-.5 7.9-.4 9 1.1 9 1.1 0 1.6-.9 1.6-3 0-2.7.3-3 3-3h3v12H39.5v-24h7.4l-.6 9zm82.7-.8c0 4.6.3 10 .6 12l.7 3.8h-7.8v-24h6.5v8.2zm119.8-6.6c2 1.4 2.2 2.4 2.2 10.3 0 10.7-.4 11.2-9.8 11.9l-6.7.4V315h6c3.9 0 6.9.6 8.3 1.6zm10.8 2.9c.1 2.2.5 7.5.8 11.7l.6 7.8h-6.5l.1-11.3c.1-13.7-.1-12.9 2.7-12.5 1.8.2 2.2 1 2.3 4.3zm48.1.5c0 2.5.4 7.8.7 11.7l.6 7.3h-7.6l.1-9c0-4.9.3-9 .7-9 .4 0 .5-.7.2-1.5-1-2.5.4-4.7 2.8-4.3 2 .3 2.3 1 2.5 4.8zm54.1-3.8c.7.7 1.2 2.9 1.2 4.9 0 3.2-.7 4.3-4.7 7.8-3.3 2.7-4.2 4-3 4.1.9 0 1.7-.7 1.7-1.5 0-1 1-1.5 3-1.5 2.9 0 3 .2 3 4.5v4.5h-16v-4.9c0-4.6.2-5.1 4.5-8.2 4.8-3.7 6.3-5.9 3.9-5.9-.9 0-1.8.9-2.1 2-.4 1.4-1.4 2-3.4 2-2.7 0-2.9-.3-2.9-3.9 0-2.2.5-4.2 1.3-4.4 2.5-1.1 12.3-.7 13.5.5zm-74.7 4.8c.5 0 .9 1.1.9 2.5s-.4 2.5-1 2.5c-.5 0-1 1.8-1 4s.5 4 1 4c.6 0 1 1.1 1 2.5 0 1.9-.5 2.5-2.2 2.5-4 0-4.9-1.5-5.9-9-1.1-9-.5-11.6 2.9-12.8 2.4-.8 2.7-.6 3 1.5.2 1.2.8 2.3 1.3 2.3zm48 0c.5 0 .9 1.1.9 2.5s-.4 2.5-1 2.5c-.5 0-1 1.8-1 4s.5 4 1 4c.6 0 1 1.1 1 2.5 0 2.1-.5 2.5-2.9 2.5-1.6 0-3.3-.6-3.8-1.3-1.4-1.7-2.4-15.4-1.3-18.2 1.2-3.3 5.4-3.8 5.8-.8.2 1.3.8 2.3 1.3 2.3zm-264.4 1.2c.6.7 1.3 4.8 1.6 9l.7 7.7-6.3-.1c-7.1-.1-8.7-.9-8.7-4.8 0-3.1 2.3-5.6 6.3-6.5 2.2-.6 2.6-1 1.6-1.9-.8-.8-1.3-.8-1.6.1-.3.7-1.6 1.3-2.9 1.3-1.9 0-2.4-.5-2.4-2.4 0-1.3.6-2.7 1.3-2.9 2.5-1.1 9.5-.7 10.4.5zm11.1 5.5c.2 5 .6 6.3 1.9 6.3 1.3 0 1.5-.9.9-6.5l-.7-6.5H87c2.9 0 3 .2 3 4.4 0 2.4.3 6.4.6 8.9l.7 4.6h-6.2c-7.2-.1-9.1-1.4-9.1-6.7 0-2-.3-5.4-.7-7.5l-.6-3.8 3.4.3 3.4.3.3 6.2zM104 324c0 1.9-.5 3-1.4 3-1.6 0-2.7 4.3-1.5 6.2.5.7.9 2.3.9 3.5 0 2-.5 2.3-3.8 2.3h-3.8v-18h4.8c4.7 0 4.8.1 4.8 3zm14.8-1.8c.7.7 1.2 2.9 1.2 5 0 3.8 0 3.8-4 3.8-2.9 0-4 .4-4 1.5 0 1.7 1.6 2 2.5.5.3-.6 1.7-1 3.1-1 1.9 0 2.4.5 2.4 2.5 0 2.9-2.6 4.5-7.4 4.5-5.1 0-6.6-2.1-6.6-9.4 0-3.5.5-6.7 1.2-7.4.7-.7 3.3-1.2 5.8-1.2s5.1.5 5.8 1.2zm157.6-.6c.9.3 1.6 1.7 1.6 3 0 2-.5 2.4-3 2.4-1.6 0-3-.5-3-1.1 0-.5-.5-.7-1.2-.3-.7.5.4 1.4 3 2.5 3.8 1.6 4.2 2.2 4.2 5.3 0 5-4.6 6.9-11.7 5-3.3-.9-3.3-6.4-.1-6.4h2.2l-2.2-1.6c-2.6-1.8-2.9-5.6-.6-7.8 1.5-1.6 7.8-2.2 10.8-1zM300 324c0 1.9-.5 3-1.4 3-2 0-2.6 2.4-1.9 7.5l.6 4.5h-6.9v-18h4.8c4.7 0 4.8.1 4.8 3zm23.4-2.4c1 .4 1.6 1.8 1.6 3.5 0 2.4-.4 2.9-2.4 2.9-1.3 0-2.6-.7-3-1.5-1.1-3-2.6-1.4-2.6 3s1.5 6 2.6 3c.4-.8 1.7-1.5 3-1.5 2 0 2.4.5 2.4 3 0 3.4-2.3 5-7.1 5-5 0-6.9-2.4-6.9-8.7 0-7.7 1.1-9.3 6.5-9.3 2.4 0 5 .3 5.9.6z"/><path d="M309 234.9V256h7c8.1 0 13.6-2.2 16.8-6.7 6-8.7 5.5-22.1-1.1-29.1-3.5-3.8-7.5-5.3-15.3-5.9l-7.4-.6v21.2zm14.5-12.5c4.2 1.8 6.8 6.6 6.9 12.6 0 8.1-4.8 14-11.5 14.3l-3.4.2-.3-12.9c-.1-7.2 0-13.6.2-14.3.7-1.7 3.8-1.7 8.1.1zM138 312.5c-1.4 1.7-1.1 4.5 1.8 18.3 1.1 5.1 2.5 9.9 3.2 10.7 1.4 1.7 20.6 2 22.6.4.9-.7 1.9-.7 3.2 0 1.1.6 12 .9 27.6.9 29.4-.1 29.2-.1 28.3-7.5-.3-2.9 0-4.6.9-5.4 1.8-1.5 1.8-10.3 0-11.8-.9-.7-5.9-1-15-.9-9.3.2-13.6 0-13.6-.8 0-.6-.9-1.9-2-2.9-1.7-1.6-2.5-1.7-5.9-.7-2.1.7-4.4 1.9-5.1 2.7-.8 1-3.1 1.5-7.1 1.5-5 0-5.9-.3-5.9-1.8 0-3.7-1.9-4.2-17.1-4.2-11.7 0-14.9.3-15.9 1.5zm11.5 7.5c-.4 3-.3 5 .3 5 .5 0 1.2-2.3 1.6-5.1.6-4.7.8-5 3.4-4.7 2.4.3 2.8.9 3.8 6.3.9 4.5 1.2 5.3 1.4 3 .2-1.7.2-4.5.1-6.3-.2-3.1-.1-3.2 3.3-3.2 4.2 0 4.1-.4 2.1 10.9-2.5 14-2.1 13.1-5.9 13.1-3.2 0-3.4-.2-4.3-4.8l-.9-4.7-.8 4.8c-.7 4.8-.7 4.8-4.4 4.5l-3.6-.3-1.6-8.7c-.8-4.7-1.8-9-2.2-9.4-.5-.4-.8-1.8-.8-3.1 0-2.1.4-2.3 4.6-2.3h4.6l-.7 5zm43.6-1.8c.1 1.3.2 6.5.3 11.5.2 9 .1 9.3-2 9.3-3.2 0-4.1-1.7-4.7-9.8-.8-9.9.2-12.3 5.6-13.1.4 0 .8.9.8 2.1zm-11.3 4c.7.7 1.2 3.3 1.2 5.9 0 2.6.5 5.1 1 5.4.6.3 1 1.7 1 3 0 2.3-.3 2.4-7 2.3-7.7 0-9.3-1-8.8-5.5.2-2.2 1.3-3.3 4.6-5 2.4-1.2 3.8-2.4 3.3-2.7-.5-.4-1.2-.2-1.6.4-.3.5-1.7 1-3.1 1-1.9 0-2.4-.5-2.4-2.4 0-1.3.6-2.7 1.3-2.9 2.4-1 9.3-.7 10.5.5zm27.6.4c.9.8 1.6 3.1 1.6 5 0 3.4 0 3.4-4.5 3.4-3.3 0-4.5.4-4.5 1.5 0 .8.7 1.5 1.5 1.5s1.5-.5 1.5-1c0-.6 1.4-1 3-1 2.5 0 3 .4 3 2.5 0 2.8-3 4.5-7.9 4.5-5 0-6.6-2.2-6.6-8.8 0-3.5.5-6.6 1.4-7.5 1.8-2.2 9.4-2.3 11.5-.1zM223 324c0 2.1-.5 3-1.6 3-1.4 0-1.6.8-1 6l.7 6H213.4v-18h4.8c4.7 0 4.8.1 4.8 3z"/><path d="M176 332c-.8.5-1.1 1.2-.7 1.6.4.4 1.3.2 1.9-.4 1.5-1.5.7-2.4-1.2-1.2zM202.5 326c-.3.5.1 1 1 1s1.3-.5 1-1c-.3-.6-.8-1-1-1-.2 0-.7.4-1 1zM242 326.6c0 4.8.3 6.5 1.3 6.2 1.9-.7 2.2-11.4.2-12.1-1.3-.5-1.5.4-1.5 5.9zM65 332c-.8.5-1.1 1.2-.7 1.6.4.4 1.3.2 1.9-.4 1.5-1.5.7-2.4-1.2-1.2zM112 326c0 .5.5 1 1 1 .6 0 1-.5 1-1 0-.6-.4-1-1-1-.5 0-1 .4-1 1zM270 333c0 .5.5 1 1.1 1 .5 0 .7-.5.4-1-.3-.6-.8-1-1.1-1-.2 0-.4.4-.4 1z"/></svg>